<?xml version="1.0" encoding="UTF-8" standalone="no"?>
<svg
   width="24"
   height="24"
   viewBox="0 0 24 24"
   fill="none"
   stroke-width="2"
   stroke="currentColor"
   stroke-linecap="round"
   stroke-linejoin="round"
   version="1.1"
   id="svg2"
   sodipodi:docname="brand-mastodon.svg"
   inkscape:version="1.3.2 (091e20ef0f, 2023-11-25)"
   xmlns:inkscape="http://www.inkscape.org/namespaces/inkscape"
   xmlns:sodipodi="http://sodipodi.sourceforge.net/DTD/sodipodi-0.dtd"
   xmlns="http://www.w3.org/2000/svg"
   xmlns:svg="http://www.w3.org/2000/svg">
  <defs
     id="defs2" />
  <sodipodi:namedview
     id="namedview2"
     pagecolor="#ffffff"
     bordercolor="#000000"
     borderopacity="0.25"
     inkscape:showpageshadow="2"
     inkscape:pageopacity="0.0"
     inkscape:pagecheckerboard="0"
     inkscape:deskcolor="#d1d1d1"
     inkscape:zoom="12.723077"
     inkscape:cx="32.5"
     inkscape:cy="32.5"
     inkscape:window-width="1920"
     inkscape:window-height="1021"
     inkscape:window-x="0"
     inkscape:window-y="0"
     inkscape:window-maximized="1"
     inkscape:current-layer="svg2" />
  <path
     d="M 18.354009,6.127996 C 18.073531,4.0432242 16.256515,2.4002827 14.102602,2.081923 13.739199,2.0281283 12.362362,1.8323509 9.1729267,1.8323509 h -0.023825 c -3.190331,0 -3.8747793,0.1957774 -4.2381825,0.2495721 C 2.8169755,2.3914617 0.90472634,3.8677315 0.44077584,5.9771899 0.21762139,7.0160563 0.19380646,8.1677885 0.23526208,9.2242667 c 0.0590963,1.5150753 0.0705626,3.0274953 0.20816004,4.5363913 0.0951248,1.002299 0.26106825,1.996599 0.49658485,2.975465 0.44101823,1.807852 2.22625533,3.312331 3.97533433,3.926123 1.8726282,0.64009 3.8865103,0.746358 5.8161237,0.306895 0.21227,-0.04938 0.421911,-0.106687 0.628896,-0.17197 0.469224,-0.149015 1.018748,-0.315702 1.422718,-0.608479 0.0056,-0.0041 0.01009,-0.0094 0.01328,-0.01553 0.0032,-0.0061 0.005,-0.01287 0.0053,-0.01976 v -1.46215 c -1.19e-4,-0.0064 -0.0017,-0.01278 -0.0045,-0.01857 -0.0028,-0.0058 -0.007,-0.01083 -0.01206,-0.01481 -0.0051,-0.004 -0.01098,-0.0068 -0.01728,-0.0082 -0.0062,-0.0014 -0.01281,-0.0013 -0.01907,6e-5 -1.2363,0.295284 -2.503167,0.443284 -3.7742417,0.440955 -2.1874348,0 -2.7757636,-1.03797 -2.9442115,-1.47009 -0.1354329,-0.373463 -0.221433,-0.763045 -0.2557913,-1.158807 -3.581e-4,-0.0067 8.667e-4,-0.01328 0.00355,-0.01938 0.00268,-0.0061 0.00678,-0.01143 0.01194,-0.01564 0.00517,-0.0043 0.011224,-0.0072 0.017732,-0.0086 0.00651,-0.0014 0.013254,-0.0013 0.019702,3.87e-4 1.2156726,0.293254 2.4618824,0.441254 3.7124803,0.440926 0.3007475,0 0.6006572,0 0.9014342,-0.0079 1.257762,-0.03528 2.583464,-0.09964 3.820958,-0.341284 0.03087,-0.0062 0.06176,-0.01146 0.08821,-0.0194 1.951941,-0.374807 3.809496,-1.551225 3.998271,-4.530212 0.0071,-0.117285 0.02468,-1.22845 0.02468,-1.350151 8.33e-4,-0.413612 0.133194,-2.9340318 -0.0194,-4.4826 z"
     id="path1"
     style="stroke-width:0.597015" />
  <path
     d="M 15.261588,8.4702663 V 13.649553 H 13.209109 V 8.6228336 c 0,-1.0582694 -0.441015,-1.5979713 -1.33806,-1.5979713 -0.986121,0 -1.480061,0.6384781 -1.480061,1.8995835 V 11.675911 H 8.3508662 V 8.9244458 c 0,-1.2611054 -0.4948362,-1.8995835 -1.4809563,-1.8995835 -0.891732,0 -1.3371652,0.5397019 -1.3371652,1.5979713 V 13.649553 H 3.4811312 V 8.4702663 c 0,-1.0582694 0.2702092,-1.8989865 0.8105976,-2.5221809 0.5574631,-0.6217319 1.2886577,-0.940956 2.1962704,-0.940956 1.0505082,0 1.8443297,0.4038809 2.3735541,1.2108069 L 9.37224,7.075131 9.8838225,6.2179363 c 0.5292245,-0.806926 1.3230465,-1.2108069 2.3717935,-1.2108069 0.906747,0 1.637941,0.3192241 2.197136,0.940956 0.539821,0.6225974 0.809433,1.4633443 0.808836,2.5221809 z"
     id="path2"
     style="stroke-width:0.597015" />
</svg>
